# xmcd
#
# Track frame offsets:
#	150
#	16049
#	27848
#	42085
#	55850
#	73764
#	86491
#	98054
#	111264
#	125539
#
# Disc length: 1896 seconds
#
# Revision: 1
# Processed by: cddbd v1.5.2PL0 Copyright (c) Steve Scherf et al.
# Submitted via: audiograbber 1.83.01
#
DISCID=7807660a
DTITLE=Various Artist - FH-7108/Country Kings
DYEAR=1900
DGENRE=Karaoke
TTITLE0=George Jones - He Stopped Loving Her Today
TTITLE1=Buck Owens - Together Again
TTITLE2=Jimmy Dean - Big Bad John
TTITLE3=Charlie Rich - Behind Closed Doors
TTITLE4=Charlie Daniels Band - The Devil Went Down To Georgia
TTITLE5=Hank Williams - Your Cheatin' Heart
TTITLE6=Roger Miller - King Of The Road
TTITLE7=Eddy Arnold - Make The World Go Away
TTITLE8=Johnny Paycheck - Take This Job And Shove It
TTITLE9=Kenny Rogers - The Gambler
EXTD=
EXTT0=
EXTT1=
EXTT2=
EXTT3=
EXTT4=
EXTT5=
EXTT6=
EXTT7=
EXTT8=
EXTT9=
PLAYORDER=
